General




Complete name                    : Kal.Ho.Na.Hoo 720p Upscaled x264.mp4
Format                           : MPEG-4
Format profile                   : Base Media / Version 2
Codec ID                         : mp42
File size                        : 1.38 GiB
Duration                         : 2h 59mn
Overall bit rate                 : 1 095 Kbps
Encoded date                     : UTC 2010-02-14 13:28:42
Tagged date                      : UTC 2010-02-14 23:12:33
Writing application              : HandBrake 0.9.4 2009112300

Video
ID                               : 1
Format                           : AVC
Format/Info                      : Advanced Video Codec
Format profile                   : High@L3.1
Format settings, CABAC           : Yes
Format settings, ReFrames        : 3 frames
Codec ID                         : avc1
Codec ID/Info                    : Advanced Video Coding
Duration                         : 2h 59mn
Bit rate mode                    : Variable
Bit rate                         : 930 Kbps
Nominal bit rate                 : 924 Kbps
Width                            : 1 280 pixels
Height                           : 528 pixels
Display aspect ratio             : 2.40:1
Frame rate mode                  : Variable
Frame rate                       : 23.976 fps
Minimum frame rate               : 23.974 fps
Maximum frame rate               : 23.981 fps
Resolution                       : 24 bits
Colorimetry                      : 4:2:0
Scan type                        : Progressive
Bits/(Pixel*Frame)               : 0.057
Stream size                      : 1.17 GiB (85%)
Writing library                  : x264 core 79








Audio
ID                               : 2
Format                           : AAC
Format/Info                      : Advanced Audio Codec
Format version                   : Version 4
Format profile                   : LC
Format settings, SBR             : No
Codec ID                         : 40
Duration                         : 2h 59mn
Bit rate mode                    : Variable
Bit rate                         : 160 Kbps
Maximum bit rate                 : 259 Kbps
Channel(s)                       : 2 channels
Channel positions                : L R
Sampling rate                    : 48.0 KHz
Resolution                       : 16 bits
Stream size                      : 206 MiB (15%)
Encoded date                     : UTC 2010-02-14 13:28:42
Tagged date                      : UTC 2010-02-14 23:12:33
